<?xml version="1.0" encoding="UTF-8"?>
<svg id="Layer_2" data-name="Layer 2" xmlns="http://www.w3.org/2000/svg" xmlns:xlink="http://www.w3.org/1999/xlink" viewBox="0 0 256 256">
  <defs>
    <style>
      .cls-1 {
        fill: url(#New_Gradient_Swatch);
        stroke-width: 0px;
      }

      .cls-2 {
        fill: none;
        stroke: #002c2d;
        stroke-miterlimit: 10;
        stroke-width: 15px;
      }
    </style>
    <linearGradient id="New_Gradient_Swatch" data-name="New Gradient Swatch" x1="128" y1="0" x2="128" y2="256" gradientUnits="userSpaceOnUse">
      <stop offset="0" stop-color="#a3e2e4"/>
      <stop offset=".22" stop-color="#a0dfe1"/>
      <stop offset=".38" stop-color="#96d7d9"/>
      <stop offset=".52" stop-color="#87cacc"/>
      <stop offset=".64" stop-color="#70b7b9"/>
      <stop offset=".76" stop-color="#549ea1"/>
      <stop offset=".87" stop-color="#308083"/>
      <stop offset=".98" stop-color="#075d60"/>
      <stop offset="1" stop-color="#00575a"/>
    </linearGradient>
  </defs>
  <g id="Layer_2-2" data-name="Layer 2">
    <rect id="BACK" class="cls-1" width="256" height="256" rx="40" ry="40"/>
    <path class="cls-2" d="M30.06,161.97c0,1.77,4.96,5.82,12.65,10.97,4.97,3.34,11.08,7.12,17.73,11.06,6.18,3.67,12.85,7.44,19.46,11.07,21.29,11.64,42.32,21.81,46.95,21.81s26.03-10.17,47.76-21.82c6.77-3.62,13.59-7.39,19.92-11.05,6.84-3.93,13.1-7.73,18.23-11.05,7.99-5.21,13.16-9.29,13.16-10.99,0-2.49-11.21-9.65-26.13-17.9-1.71,1.02-3.46,2.05-5.26,3.08-6.33,3.64-13.15,7.42-19.92,11.05-21.73,11.65-43.15,21.82-47.76,21.82s-25.66-10.17-46.95-21.81c-6.61-3.63-13.28-7.41-19.46-11.08-1.75-1.03-3.46-2.06-5.13-3.07-14.43,8.18-25.25,15.32-25.25,17.91Z"/>
    <path class="cls-2" d="M53.11,108.48c-13.32,7.64-23.05,14.18-23.05,16.64,0,1.77,4.96,5.82,12.65,10.97l17.73,11.05c6.18,3.67,12.85,7.45,19.46,11.08,21.29,11.64,42.32,21.81,46.95,21.81s26.03-10.17,47.76-21.82c6.77-3.62,13.59-7.4,19.92-11.05,1.8-1.03,3.55-2.06,5.26-3.08,4.79-2.81,9.19-5.52,12.97-7.96,7.99-5.21,13.16-9.29,13.16-10.99,0-2.36-10.09-8.93-23.85-16.63"/>
    <path class="cls-2" d="M30.06,90.88c0,1.77,4.96,5.82,12.65,10.97,3.08,2.07,6.59,4.31,10.39,6.64,2.34,1.43,4.79,2.91,7.33,4.41,6.18,3.67,12.85,7.45,19.46,11.08,2.22,1.21,4.42,2.41,6.6,3.57,18.89,10.08,36.2,18.25,40.35,18.25s21.75-8.17,41.01-18.25c2.24-1.17,4.49-2.36,6.75-3.58,6.77-3.62,13.59-7.4,19.92-11.05,2.61-1.51,5.14-2.98,7.55-4.42,3.9-2.34,7.51-4.58,10.69-6.63,7.99-5.21,13.16-9.29,13.16-10.99,0-7.06-90.26-51.75-99.08-51.75S30.06,83.51,30.06,90.88Z"/>
  </g>
</svg>